<?xml version="1.0" encoding="UTF-8"?>
<svg id="Warstwa_1" data-name="Warstwa 1" xmlns="http://www.w3.org/2000/svg" viewBox="0 0 577.13 494.55">
  <defs>
    <style>
      .cls-1 {
        stroke-width: .37px;
      }

      .cls-1, .cls-2, .cls-3 {
        stroke: #000;
        stroke-miterlimit: 10;
      }

      .cls-4 {
        fill: #1d1d1b;
      }

      .cls-2, .cls-3 {
        stroke-width: 1.49px;
      }

      .cls-2, .cls-5 {
        fill: none;
      }

      .cls-5 {
        stroke: #1d1d1b;
        stroke-linecap: round;
        stroke-linejoin: round;
        stroke-width: 3.37px;
      }
    </style>
  </defs>
  <g>
    <path d="M411.37,180.21c-5.62-2.7-20.74-.93-24.66-4.68-.58-.56-.93-1.69-1.39-2-1.43-.96-2.83.2-2.76-2.46.25-8.13,1.05-14.44-.01-22.8-1.79-13.95-7.05-27.4-14.7-39.09.31-.89,2.12-1.58,2.4-2.14.37-.78.04-1.99.56-3.08,2.25-4.7,15.55-9.5,19.49-13.84,4.94-5.46,1.36-13.24-6.19-12.18-6.61.92-14.24,16.33-21.78,17.19-.55.06-1.13-.32-1.58-.25-.7.1-2.11,1.86-2.68,1.81-.42-.03-5.22-4.97-6.09-5.72-14.62-12.53-33-20.95-52.36-22.33.93-3.68-2.02-3.88-2.32-7.1-.7-7.48,2.61-16.06,1.58-22.77-1.27-8.28-12.81-8.29-13.99,0-.87,6.06,3.55,20.67.84,25.01-.4.63-1.37,1.24-1.52,1.78-.24.81.23,2.52-.37,2.94-.31.21-6.16.7-7.33.91-16.39,2.86-31.76,10.1-44.4,20.91-.98.84-6.27,6.39-6.74,6.4-.19,0-1.54-1.27-2.13-1.45-1.91-.57-2.68.3-4.92-1.01-6.1-3.56-13.38-16.09-19.94-16.37-6.55-.28-9.42,7.01-5.28,11.94,4.01,4.77,17.9,9.6,19.85,14.8.3.8.28,1.76.58,2.39.32.67,2.19,1.75,2.08,2.43-.07.44-3.99,6.41-4.62,7.62-6.62,12.62-10.32,27.13-10.49,41.56l19.69-11.02c1.36-8.52,4.17-16.83,8.47-24.03.23-.4.81-1.84,1.31-1.64l11.83,10.57c.98-.51,1.91-1.08,2.8-1.73.3-.22.61-.4.94-.57,3.79-2.7,7.65-5.26,11.6-7.72.76-.48,2.99-.37,3.95-.25l-20.1-14.22c-.29-.43.98-1.49,1.31-1.81,10.58-10.23,25.98-16.93,40.5-18.7.27,2.06-.23,4.18-.33,6.12-.39,7.96-.57,16.04-1.26,24,6.6-6.32,13.16-12.69,19.63-19.15.17-.17.35-.32.53-.48-.18-3.5-.35-7-.46-10.5,11.26,1.4,22.34,5.6,31.71,11.97,1.33.91,10,7.42,9.77,8.37l-13.6,9.64c1.74,8.11,1.53,10.73,2.39,20.96.22-.61.75-1.1,1.6-1.1,1.15,0,1.72.9,1.71,1.79l18.95-17.2c.55-.13,1.53,1.87,1.84,2.41,6.55,11.27,10.6,28.76,9.18,41.77-.05.46,0,.89-.54,1.11l-20.82-5.99c-.11.26-.26.52-.46.78-4.7,5.96-9.69,11.67-14.66,17.41l32.51,5.38c-5.55,14.95-15.66,28.21-29.14,36.73l-9.18-22.2c.6,5.29,1.07,10.6,1.72,15.89,1.03,8.29,2.3,16.54,3.22,24.84,0,.03,0,.05,0,.08.64,3.36,1.26,6.72,1.82,10.11,3.71,3.86,5.66,17.56,9.03,22.23,4.83,6.68,14.8,1.99,12.5-6.27-1.58-5.68-11.92-16.81-11.67-21.65.04-.84.71-1.59.66-2.67-.03-.8-1.09-2.46-.87-2.83.19-.31,5.3-3.35,6.22-4.02,13.85-10.08,24.45-23.28,31.24-39.1.49-1.14,2.55-7.45,2.89-7.69.76-.52,1.91.3,2.79.19.72-.1,1.5-1.06,2.41-1.25,6.28-1.33,17.34,6.56,23.96,6.57,8.31,0,10.58-10.02,3.26-13.55Z"/>
    <g>
      <path class="cls-3" d="M324.81,178.89c4.66-5.11,9.68-9.93,13.81-15.47-.11-1.21-.2-2.4-.3-3.57-.36-4.5-.75-8.8-2.55-13.17-.45-1.06-2.32-5.21-2.88-6.05-.01-.02-.03-.04-.04-.05-.19-.26-.43-.46-.66-.68-.55.64-.87,1.47-1.1,2.37-.31,1.17-.48,2.45-.82,3.55-.46,1.42-1.2,2.54-2.92,2.77.16-1.14.55-2.36.66-3.53.03-.22.04-.44.04-.66-.01-6.09,0-12.87-.82-19.49h0c-.23-1.9-.53-3.79-.93-5.64-1.28-6.08-3.53-11.81-7.47-16.49-1.88-2.23-8.86-8.25-11.86-6.85-.51.24-3.35,2.74-4.03,3.34-.47.42-.94.84-1.4,1.28-4.56,4.26-8.63,9.14-12.85,13.79-.97,1.07-1.95,2.13-2.95,3.16-1.62,1.69-3.29,3.32-4.96,4.96-1.31,1.29-2.63,2.58-3.91,3.91-3.96-.42-7.95-1.07-11.94-1.43-2.38-.22-4.74-.34-7.11-.26-4.71,3.16-9.41,6.33-14.11,9.52-7.12,4.83-14.21,9.68-21.29,14.58-.87.6-1.75,1.2-2.64,1.77-6.1,3.98-12.58,7.42-19.27,10.46-10.34,4.7-21.21,8.43-32,11.73-.99.3-3.74.8-5.49,1.34-.12.04-.23.07-.34.11-.57.2-.99.4-1.14.61-.86,1.17,1.46,6.76,2.19,8.22,1.5,3.02,3.44,5.83,5.68,8.41.08.1.17.19.26.29,5.67,6.45,13.22,11.52,20.63,15.18-3.23,3.53-6.5,7.1-10.02,10.37-5.02,4.66-10.79,8.51-15.49,13.51-.42.44-2.3,1.91-2.7,2.38.98-.63,2.68-1.41,3.26-1.64,3.46-1.4,6.41-3.72,9.69-5.45,12.13-6.38,26.14-8.51,38-15.14.44-.25,1.31-.04,1.33-.34-4.01-2.91-9.31-3.19-14.04-4.68-7.86-2.48-15.95-6.71-22.86-12.09-3.41-2.64-6.54-5.57-9.22-8.7-.4-.47-.8-.95-1.18-1.43-.89-1.12-5.56-7.67-4.51-8.7.07,0,.13-.01.19-.02h0c.12-.01.23-.03.35-.04,5.89-.7,11.76-1.74,17.66-2.27,7.24-.63,14.06-1.08,20.62-.42,7.65.76,14.93,3.01,22.1,8.16,1.26.9,2.7,2.11,3.91,3.11.17.14.36.34.56.56.96,1.02,2.19,2.59,3.24,2.26.72-.22.41-1.65.13-2.83-.13-.54-.25-1.02-.26-1.33-.35-6.6,2.01-13.37,5.44-19.61,2.88-5.22,6.51-10.07,9.94-14.14,2.14-2.55,4.29-4.5,6.73-5.74,2.71-1.4,5.79-1.93,9.63-1.46.47.9-2.87,4.21-3.47,5.04-.34.47-.72.99-1.11,1.52-1.2,1.65-2.51,3.51-3.37,5.03-.16.3-.73.84-.24,1.11,1.37-1.67,2.79-3.29,4.23-4.91,5.49-6.18,11.29-12.11,16.16-18.78.34-.46.66-.92.99-1.38,1.52-1.43,3.02-2.9,4.5-4.38,3.05-3.08,5.99-6.24,8.92-9.43,3.87-4.21,7.69-8.46,11.66-12.59.46.22-.05.85-.16,1.17-.49,1.38-2.78,5.7-2.7,6.68.02.33.24.75.55.82.17.04,1.74-.47,3.29-.99,1.3-.43,2.59-.86,3.05-.97,1.64-.39,3.36-.76,5.03-.98,1.82-.23,8.53-.84,9.81-.22,1.23.6,3.38,7.16,4.65,12.48.43,1.79.76,3.44.93,4.67.1.76.13,1.36.1,1.74-1.14-.71-2.59-3-3.81-4.44-.43-.51-.84-.9-1.19-1.09-.43-.23-.57-.25-.84.19l-2.29,3.97-16.12,27.86-11.02,19.05-.15.26.31-.19,12.08-7.63,12.7-8.03c1.04-1.45-.22-6.6-.02-8.54,1.18.99,2.08,2.64,3.16,3.69.72.69,1.69,1.16,2.35,1.93l3.55-2.02,6-3.42.8-2.3,1.36-3.89c2.5,5.35,3.69,11.16,3.85,17.05.03.92.02,1.84,0,2.76-13.23,9.05-25.66,19.15-38.41,28.85-1.21,1.28-1.79,2.43-2.22,4.13,0,.02,0,.04-.01.06-2.91,11.55-1.9,18.66-2.68,30.71l-1.09,12.94c0,.98-1.35,10.2-1.35,10.2,0,0,3.42-4.71,3.5-4.85,3.44-5.98,2.85-4.68,5.48-9.96.72-1.46,2.15-4.62,2.85-6.1,1.98-4.17,2.59-8.08,4.18-12.43.13-.34.25-.69.37-1.04,1.44-4.15,2.55-8.42,4.14-12.5l.51,13.53,1.33,9.86c.09-5.52.3-11.02.35-16.56.04-4.81-.99-11.88,1.08-16.27l1.58-2.27c.83,13.79,2.35,27.57,4.4,41.23.31,2.1,1.93,7.94,1.85,9.37-.08,1.34-1.04,4.1-1.86,6.52-.42,1.25-.81,2.41-1.02,3.25-2.65,10.37-4.95,21.39-6.31,32.12-.15,1.11-.28,2.2-.4,3.29-.56,5.17-.55,10.4-1.19,15.57-.04.34-.09.69-.13,1.03,0,.04,0,.07-.01.11l.03-.15,10.73-55.78c.52-2.08,1.05-4.17,1.61-6.24l-7.02-51.46c.28-.43.55-.86.84-1.28,2.17-3.23,4.68-6.18,7.3-9.05Z"/>
      <path class="cls-1" d="M214.03,200.07c.08.6-.72.3-1.08.25-1.28-.19-2.43-.59-3.56-1.05-1.43-.58-2.82-1.26-4.29-1.8-6.21-2.27-12.56-4.3-18.71-6.76-3.88-1.54-7.69-3.26-11.35-5.3-1.67-.93-3.62-1.94-5.01-3.27-.16-.15-.31-.31-.45-.46.22.08.45.16.67.24,4.52,1.58,9.01,2.43,13.86,2.09,1.47-.1,2.63-1.02,4.2-.52.38.12,3.37,3.18,4.86,4.6.27.26.49.47.64.59,4.53,3.73,9.58,6.4,14.78,8.87,1.79.85,3.61,1.68,5.43,2.52Z"/>
      <path class="cls-1" d="M262.16,239.51l-3.35-7.85c-1.49-4.65-3.2-9.37-4.44-14.17-.68-2.62-1.22-5.27-1.52-7.94-1.15-10.38,1.17-20.88,5.64-30.21-1.95,1.51-3.56,3.6-4.82,5.71-.75,1.25-2.64,6.03-3.2,6.5-.98.84-1.29-2.73-1.34-3.35-.2-2.61-.06-5.18.35-7.71.73-4.61,2.35-9.06,4.37-13.3.79-1.66,1.68-3.56,2.96-4.89-1.98,5.97-4.97,11.77-6.18,18-.25,1.27-.43,2.56-.51,3.88-.08,1.31-.37,4.11.67,4.86.4-1.26,1.06-2.64,1.74-3.78.47-.77,2.68-4.12,4.63-6.05,1.08-1.08,2.08-1.7,2.66-1.2-.13.28-.25.55-.36.83-4.74,10.87-6.84,21.76-4.88,33.66.16,1.02.37,2.04.6,3.04,1.81,8.14,5.24,15.83,6.98,23.98Z"/>
    </g>
    <path class="cls-3" d="M322.23,240.97c-.08,1.34-1.04,4.1-1.86,6.52-.42,1.25-.81,2.41-1.02,3.25-2.65,10.37-4.95,21.39-6.31,32.12,4.62-41.25-8.19-62.65-8.19-62.65,1.98-4.17.2-.24,1.79-4.59.13-.34.25-.69.37-1.04,1.44-4.15,2.55-8.42,4.14-12.5l.51,13.53,1.33,9.86c.09-5.52.3-11.02.35-16.56.04-4.81-.99-11.88,1.08-16.27l1.58-2.27c.83,13.79,2.35,27.57,4.4,41.23.31,2.1,1.93,7.94,1.85,9.37Z"/>
    <path class="cls-3" d="M311.33,302.71l10.73-55.78c.52-2.08,1.05-4.17,1.61-6.24,0,0,3.36,21.05-12.35,62.02Z"/>
    <path class="cls-2" d="M313.03,282.85c-.19,5.76-.69,12.04-1.58,18.87l-.13,1.03s0-.02.01-.04"/>
  </g>
  <g>
    <path class="cls-4" d="M78.34,261.68l.4-.17c.95-.39,1.99.31,1.99,1.34v116.41c-.48,15.61,2.93,25.3,15.53,25.3,5.34,0,10.27-2.19,13.64-4.36.66-.42,1.62.05,2.05.7h0c.46.68.25,1.6-.44,2.04-3.74,2.34-9.12,4.89-15.22,4.89-13.63,0-18.86-8.41-18.86-24.11v-120.7c0-.59.35-1.11.89-1.34Z"/>
    <path class="cls-4" d="M134.64,322.64c0-.85.63-1.48,1.48-1.48h.85c.85,0,1.48.63,1.48,1.48v46.29c0,23.04,10.99,35.09,31.28,35.09,19.02,0,29.59-15.43,30.86-17.33v-64.05c0-.85.63-1.48,1.48-1.48h.85c.85,0,1.48.63,1.48,1.48v81.59c0,.84-.63,1.48-1.48,1.48h-.85c-.85,0-1.48-.63-1.48-1.48v-11.2c-4.86,5.92-15.22,14.8-30.86,14.8-22.83,0-35.09-13.32-35.09-38.89v-46.29Z"/>
    <path class="cls-4" d="M341.15,322.64c0-.85.63-1.48,1.48-1.48h.85c.85,0,1.48.63,1.48,1.48v46.29c0,23.04,10.99,35.09,31.28,35.09,19.02,0,29.59-15.43,30.86-17.33v-64.05c0-.85.63-1.48,1.48-1.48h.85c.85,0,1.48.63,1.48,1.48v81.59c0,.84-.63,1.48-1.48,1.48h-.85c-.85,0-1.48-.63-1.48-1.48v-11.2c-4.86,5.92-15.22,14.8-30.86,14.8-22.83,0-35.09-13.32-35.09-38.89v-46.29Z"/>
    <path class="cls-4" d="M440.29,396.84l1.06-1.48c.42-.63,1.06-.63,1.9,0,4.23,3.38,12.47,8.67,25.58,8.67,15.22,0,26.63-8.45,26.63-19.45,0-12.05-12.68-16.49-28.54-20.93-18.81-5.29-27.9-10.99-27.9-22.83,0-9.51,8.67-21.77,28.54-21.77,11.41,0,19.87,4.02,24.1,6.76.63.42.85,1.06.42,1.69l-.63,1.06c-.42.63-.85,1.06-1.9.42-4.02-2.54-11.84-6.13-21.98-6.13-17.33,0-24.52,10.15-24.52,17.97,0,9.93,8.45,14.58,24.73,19.23,16.91,4.86,31.92,9.09,31.92,24.52,0,13.1-13.74,23.25-30.86,23.25-14.58,0-23.25-5.92-27.9-9.51-.63-.42-.85-.85-.63-1.48Z"/>
    <path class="cls-5" d="M258.72,461.99s-24.19-34.25-17.14-86.72c7.04-52.48,43.5-54.1,62.63-42.44,17.1,12.23,17.9,35.33,10.4,49.3-6.43,11.97-23.34,25.57-47.23,17.87-23.89-9.61-32.44-40.73-29.43-78.83"/>
  </g>
</svg>