<?xml version="1.0" encoding="UTF-8"?>
<svg id="Warstwa_1" data-name="Warstwa 1" xmlns="http://www.w3.org/2000/svg" viewBox="0 0 797.36 387.95">
  <defs>
    <style>
      .cls-1 {
        stroke-width: .38px;
      }

      .cls-1, .cls-2, .cls-3 {
        stroke: #000;
        stroke-miterlimit: 10;
      }

      .cls-4 {
        fill: #1d1d1b;
      }

      .cls-2, .cls-3 {
        stroke-width: 1.53px;
      }

      .cls-2, .cls-5 {
        fill: none;
      }

      .cls-5 {
        stroke: #1d1d1b;
        stroke-linecap: round;
        stroke-linejoin: round;
        stroke-width: 3.66px;
      }
    </style>
  </defs>
  <g>
    <path d="M276.91,206.78c-5.75-2.77-21.25-.96-25.26-4.79-.6-.57-.96-1.73-1.42-2.05-1.47-.98-2.9.21-2.82-2.52.26-8.32,1.08-14.79-.02-23.35-1.84-14.29-7.22-28.07-15.06-40.05.31-.91,2.17-1.61,2.46-2.2.38-.8.05-2.04.57-3.15,2.3-4.81,15.93-9.73,19.96-14.18,5.07-5.59,1.39-13.56-6.34-12.48-6.77.94-14.59,16.73-22.31,17.61-.56.06-1.16-.33-1.62-.26-.72.11-2.16,1.91-2.75,1.86-.43-.03-5.35-5.1-6.24-5.86-14.98-12.84-33.8-21.46-53.64-22.88.95-3.77-2.07-3.97-2.37-7.28-.72-7.66,2.67-16.45,1.61-23.32-1.3-8.49-13.12-8.49-14.33,0-.89,6.21,3.63,21.18.86,25.62-.41.65-1.4,1.27-1.56,1.82-.24.83.24,2.58-.38,3.01-.31.21-6.31.72-7.51.93-16.79,2.93-32.53,10.34-45.48,21.42-1,.86-6.43,6.55-6.91,6.56-.2,0-1.58-1.3-2.18-1.48-1.96-.58-2.75.31-5.04-1.03-6.25-3.65-13.7-16.48-20.43-16.77-6.71-.29-9.65,7.18-5.41,12.23,4.11,4.89,18.34,9.83,20.34,15.17.31.82.29,1.8.6,2.45.33.69,2.24,1.79,2.13,2.49-.07.45-4.09,6.56-4.74,7.8-6.78,12.93-10.57,27.8-10.75,42.58l20.17-11.29c1.4-8.73,4.27-17.24,8.68-24.62.24-.41.83-1.88,1.35-1.68l12.12,10.83c1-.52,1.96-1.1,2.87-1.77.3-.22.63-.41.96-.58,3.88-2.76,7.84-5.39,11.89-7.91.78-.49,3.06-.38,4.05-.25l-20.59-14.57c-.3-.44,1-1.53,1.35-1.86,10.84-10.48,26.62-17.35,41.49-19.15.28,2.11-.24,4.28-.34,6.27-.4,8.16-.59,16.43-1.29,24.59,6.76-6.48,13.48-13,20.1-19.62.18-.18.36-.33.55-.49-.19-3.59-.36-7.17-.47-10.75,11.53,1.43,22.89,5.74,32.49,12.27,1.36.93,10.25,7.61,10.01,8.57l-13.93,9.87c1.79,8.31,1.56,10.99,2.45,21.47.23-.63.77-1.13,1.64-1.13,1.18,0,1.76.92,1.76,1.84l19.42-17.62c.57-.13,1.57,1.91,1.89,2.47,6.71,11.55,10.86,29.47,9.4,42.79-.05.47,0,.91-.55,1.13l-21.33-6.14c-.12.27-.27.54-.47.79-4.82,6.1-9.93,11.96-15.01,17.83l33.31,5.51c-5.69,15.32-16.04,28.9-29.86,37.62l-9.41-22.74c.62,5.42,1.09,10.86,1.76,16.28,1.05,8.49,2.36,16.94,3.3,25.45,0,.03,0,.06,0,.09.66,3.44,1.29,6.88,1.87,10.35,3.8,3.95,5.8,17.99,9.25,22.77,4.94,6.85,15.16,2.04,12.8-6.42-1.61-5.82-12.21-17.22-11.96-22.18.05-.86.73-1.63.67-2.73-.03-.82-1.12-2.52-.89-2.9.2-.32,5.43-3.44,6.37-4.12,14.19-10.32,25.05-23.85,32-40.05.5-1.16,2.61-7.64,2.96-7.87.78-.54,1.96.31,2.85.19.74-.1,1.54-1.09,2.46-1.29,6.43-1.36,17.76,6.72,24.55,6.73,8.51,0,10.83-10.27,3.34-13.88Z"/>
    <g>
      <path class="cls-3" d="M188.23,205.43c4.77-5.23,9.92-10.18,14.15-15.85-.11-1.24-.21-2.46-.31-3.66-.37-4.61-.77-9.01-2.62-13.49-.46-1.09-2.38-5.34-2.95-6.2-.02-.02-.03-.04-.04-.05-.19-.27-.44-.47-.67-.7-.56.66-.89,1.51-1.12,2.43-.32,1.2-.49,2.51-.84,3.63-.47,1.45-1.22,2.6-2.99,2.84.17-1.16.57-2.42.67-3.61.03-.23.04-.45.04-.67-.02-6.24,0-13.18-.84-19.96h0c-.24-1.95-.54-3.88-.95-5.78-1.31-6.23-3.62-12.1-7.65-16.89-1.93-2.29-9.07-8.45-12.15-7.02-.52.24-3.43,2.81-4.12,3.42-.48.43-.96.86-1.44,1.31-4.67,4.36-8.84,9.37-13.16,14.12-.99,1.09-2,2.18-3.02,3.24-1.66,1.73-3.37,3.4-5.08,5.08-1.35,1.32-2.69,2.65-4.01,4-4.06-.43-8.15-1.09-12.23-1.47-2.43-.23-4.86-.35-7.28-.27-4.83,3.24-9.64,6.49-14.45,9.76-7.29,4.94-14.56,9.92-21.81,14.94-.9.62-1.79,1.22-2.7,1.81-6.25,4.08-12.88,7.61-19.74,10.72-10.6,4.81-21.73,8.64-32.79,12.02-1.02.31-3.83.82-5.62,1.38-.12.04-.24.08-.34.11-.58.21-1.02.41-1.17.63-.88,1.19,1.49,6.92,2.24,8.42,1.54,3.09,3.52,5.97,5.82,8.62.08.1.18.2.27.3,5.81,6.6,13.54,11.81,21.13,15.56-3.31,3.61-6.66,7.28-10.26,10.62-5.14,4.77-11.06,8.72-15.87,13.84-.43.45-2.36,1.96-2.76,2.43,1-.65,2.75-1.45,3.34-1.68,3.54-1.43,6.56-3.81,9.93-5.59,12.43-6.53,26.78-8.72,38.93-15.51.45-.25,1.35-.04,1.36-.35-4.11-2.98-9.54-3.27-14.38-4.8-8.05-2.54-16.34-6.88-23.42-12.39-3.5-2.71-6.7-5.71-9.44-8.91-.41-.48-.82-.97-1.21-1.46-.91-1.15-5.69-7.86-4.62-8.91.07,0,.13-.02.2-.02h0c.12-.02.24-.03.36-.05,6.03-.72,12.04-1.78,18.1-2.33,7.41-.65,14.41-1.1,21.13-.43,7.84.78,15.3,3.08,22.64,8.36,1.29.93,2.77,2.17,4,3.19.18.15.37.34.57.57.98,1.04,2.24,2.66,3.32,2.32.73-.23.42-1.69.14-2.9-.13-.55-.25-1.05-.27-1.36-.36-6.76,2.06-13.7,5.58-20.08,2.95-5.35,6.67-10.31,10.18-14.48,2.19-2.61,4.39-4.61,6.89-5.88,2.78-1.43,5.93-1.97,9.86-1.49.48.92-2.94,4.31-3.56,5.16-.35.48-.73,1.01-1.13,1.56-1.22,1.69-2.57,3.6-3.45,5.16-.17.31-.75.86-.24,1.13,1.41-1.71,2.86-3.37,4.34-5.03,5.62-6.33,11.56-12.41,16.56-19.24.34-.47.68-.94,1.02-1.42,1.56-1.47,3.09-2.97,4.61-4.49,3.12-3.15,6.14-6.4,9.14-9.66,3.96-4.32,7.88-8.67,11.94-12.89.47.22-.05.87-.17,1.2-.5,1.42-2.85,5.84-2.76,6.84.02.34.24.77.56.84.18.04,1.78-.48,3.37-1.02,1.33-.44,2.66-.88,3.13-.99,1.68-.4,3.44-.78,5.16-1,1.86-.24,8.74-.86,10.05-.22,1.26.61,3.46,7.34,4.77,12.79.44,1.84.78,3.52.95,4.78.1.78.14,1.39.1,1.78-1.16-.73-2.66-3.08-3.9-4.54-.44-.52-.86-.93-1.22-1.12-.44-.24-.58-.25-.86.19l-2.35,4.06-16.51,28.54-11.29,19.51-.15.27.31-.2,12.37-7.82,13.02-8.23c1.06-1.48-.23-6.76-.02-8.75,1.21,1.02,2.13,2.71,3.24,3.78.73.71,1.73,1.19,2.4,1.98l3.63-2.07,6.14-3.5.82-2.36,1.39-3.99c2.56,5.48,3.78,11.43,3.94,17.47.03.94.02,1.88,0,2.83-13.55,9.27-26.29,19.62-39.34,29.56-1.24,1.32-1.84,2.49-2.27,4.23,0,.02,0,.04-.02.06-2.98,11.84-1.94,19.11-2.75,31.46l-1.11,13.26c0,1-1.38,10.45-1.38,10.45,0,0,3.51-4.82,3.59-4.96,3.53-6.12,2.92-4.79,5.61-10.21.74-1.5,2.2-4.73,2.92-6.24,2.03-4.27,2.66-8.28,4.29-12.73.13-.35.25-.71.37-1.06,1.48-4.25,2.61-8.62,4.24-12.81l.52,13.86,1.36,10.1c.09-5.65.31-11.29.36-16.96.05-4.93-1.01-12.17,1.11-16.66l1.61-2.33c.85,14.12,2.41,28.24,4.51,42.24.32,2.15,1.97,8.13,1.9,9.59-.08,1.38-1.06,4.2-1.91,6.68-.43,1.29-.83,2.47-1.05,3.33-2.72,10.62-5.07,21.91-6.47,32.9-.15,1.13-.28,2.26-.41,3.37-.57,5.29-.57,10.66-1.22,15.95-.05.35-.09.7-.14,1.06,0,.04,0,.08-.02.11l.03-.15,11-57.14c.53-2.13,1.08-4.27,1.65-6.4l-7.19-52.72c.28-.44.57-.88.86-1.32,2.23-3.31,4.8-6.34,7.48-9.27Z"/>
      <path class="cls-1" d="M74.76,227.13c.08.61-.74.31-1.11.25-1.31-.2-2.49-.6-3.65-1.07-1.47-.59-2.88-1.29-4.39-1.84-6.36-2.33-12.86-4.41-19.17-6.92-3.98-1.58-7.87-3.34-11.62-5.42-1.71-.96-3.71-1.99-5.13-3.35-.16-.15-.31-.31-.46-.47.23.08.46.17.69.24,4.63,1.62,9.23,2.49,14.2,2.14,1.51-.1,2.69-1.04,4.3-.53.39.12,3.45,3.26,4.98,4.71.28.27.5.48.66.6,4.64,3.83,9.81,6.56,15.14,9.08,1.84.87,3.7,1.72,5.56,2.58Z"/>
      <path class="cls-1" d="M124.06,267.53l-3.43-8.04c-1.52-4.76-3.27-9.59-4.55-14.51-.7-2.69-1.25-5.39-1.56-8.13-1.18-10.64,1.19-21.39,5.78-30.95-2,1.55-3.64,3.69-4.94,5.85-.77,1.28-2.71,6.17-3.27,6.66-1,.86-1.32-2.79-1.37-3.44-.21-2.68-.06-5.31.36-7.9.75-4.72,2.4-9.28,4.48-13.63.81-1.7,1.72-3.64,3.03-5.01-2.03,6.11-5.09,12.06-6.34,18.44-.26,1.3-.44,2.62-.52,3.97-.08,1.35-.38,4.21.69,4.98.41-1.29,1.09-2.71,1.78-3.87.48-.79,2.75-4.22,4.74-6.2,1.11-1.1,2.13-1.74,2.72-1.22-.13.28-.25.57-.37.85-4.86,11.13-7.01,22.29-5,34.48.17,1.05.37,2.09.61,3.11,1.85,8.34,5.37,16.21,7.15,24.56Z"/>
    </g>
    <path class="cls-3" d="M185.59,269.02c-.08,1.38-1.06,4.2-1.91,6.68-.43,1.29-.83,2.47-1.05,3.33-2.72,10.62-5.07,21.91-6.47,32.9,4.73-42.26-8.39-64.18-8.39-64.18,2.03-4.27.2-.25,1.83-4.7.13-.35.25-.71.37-1.06,1.48-4.25,2.61-8.62,4.24-12.81l.52,13.86,1.36,10.1c.09-5.65.31-11.29.36-16.96.05-4.93-1.01-12.17,1.11-16.66l1.61-2.33c.85,14.12,2.41,28.24,4.51,42.24.32,2.15,1.97,8.13,1.9,9.59Z"/>
    <path class="cls-3" d="M174.43,332.28l11-57.14c.53-2.13,1.08-4.27,1.65-6.4,0,0,3.44,21.56-12.65,63.54Z"/>
    <path class="cls-2" d="M176.17,311.93c-.19,5.9-.7,12.33-1.62,19.33-.05.35-.09.7-.14,1.06,0-.02,0-.02.02-.04"/>
  </g>
  <g>
    <path class="cls-4" d="M319.27,102.77l.44-.18c1.03-.42,2.16.33,2.16,1.45v126.35c-.52,16.94,3.18,27.46,16.86,27.46,5.8,0,11.15-2.38,14.81-4.74.71-.46,1.76.05,2.23.76h0c.49.74.28,1.74-.48,2.21-4.06,2.54-9.9,5.31-16.52,5.31-14.8,0-20.47-9.13-20.47-26.17V104.22c0-.64.38-1.21.97-1.45Z"/>
    <path class="cls-4" d="M380.37,168.94c0-.92.69-1.61,1.61-1.61h.92c.92,0,1.61.69,1.61,1.61v50.24c0,25.01,11.93,38.08,33.95,38.08,20.65,0,32.12-16.75,33.49-18.81v-69.51c0-.92.69-1.61,1.61-1.61h.92c.92,0,1.61.69,1.61,1.61v88.56c0,.92-.69,1.61-1.61,1.61h-.92c-.92,0-1.61-.69-1.61-1.61v-12.16c-5.28,6.42-16.52,16.06-33.49,16.06-24.78,0-38.08-14.45-38.08-42.21v-50.24Z"/>
    <path class="cls-4" d="M604.52,168.94c0-.92.69-1.61,1.61-1.61h.92c.92,0,1.61.69,1.61,1.61v50.24c0,25.01,11.93,38.08,33.95,38.08,20.65,0,32.12-16.75,33.49-18.81v-69.51c0-.92.69-1.61,1.61-1.61h.92c.92,0,1.61.69,1.61,1.61v88.56c0,.92-.69,1.61-1.61,1.61h-.92c-.92,0-1.61-.69-1.61-1.61v-12.16c-5.28,6.42-16.52,16.06-33.49,16.06-24.78,0-38.08-14.45-38.08-42.21v-50.24Z"/>
    <path class="cls-4" d="M712.12,249.46l1.15-1.61c.46-.69,1.15-.69,2.06,0,4.59,3.67,13.54,9.41,27.76,9.41,16.52,0,28.91-9.18,28.91-21.11,0-13.08-13.77-17.89-30.97-22.71-20.42-5.74-30.28-11.93-30.28-24.78,0-10.33,9.41-23.63,30.97-23.63,12.39,0,21.57,4.36,26.15,7.34.69.46.92,1.15.46,1.84l-.69,1.15c-.46.69-.92,1.15-2.07.46-4.36-2.75-12.85-6.65-23.86-6.65-18.81,0-26.61,11.01-26.61,19.5,0,10.78,9.18,15.83,26.84,20.88,18.35,5.28,34.64,9.87,34.64,26.61,0,14.22-14.91,25.24-33.5,25.24-15.83,0-25.24-6.42-30.28-10.32-.69-.46-.92-.92-.69-1.61Z"/>
    <path class="cls-5" d="M515.05,320.18s-26.25-37.17-18.61-94.13c7.65-56.96,47.21-58.72,67.98-46.07,18.56,13.27,19.43,38.35,11.28,53.51-6.98,12.99-25.33,27.76-51.26,19.39-25.93-10.43-35.21-44.21-31.95-85.56"/>
  </g>
</svg>