<?xml version="1.0" encoding="UTF-8"?>
<svg id="Warstwa_1" data-name="Warstwa 1" xmlns="http://www.w3.org/2000/svg" viewBox="0 0 406.59 387.95">
  <defs>
    <style>
      .cls-1, .cls-2, .cls-3 {
        stroke: #000;
        stroke-miterlimit: 10;
      }

      .cls-1, .cls-3 {
        stroke-width: 1.82px;
      }

      .cls-2 {
        stroke-width: .46px;
      }

      .cls-3 {
        fill: none;
      }
    </style>
  </defs>
  <path d="M353.17,206.47c-6.85-3.3-25.31-1.14-30.09-5.71-.71-.68-1.14-2.06-1.7-2.44-1.75-1.17-3.45.25-3.36-3.01.31-9.92,1.29-17.62-.02-27.82-2.19-17.03-8.6-33.43-17.94-47.71.37-1.08,2.59-1.92,2.93-2.62.46-.96.05-2.42.68-3.76,2.74-5.73,18.98-11.59,23.78-16.89,6.03-6.66,1.66-16.15-7.56-14.87-8.07,1.12-17.38,19.93-26.58,20.98-.67.07-1.38-.39-1.93-.31-.86.13-2.57,2.27-3.27,2.21-.51-.04-6.37-6.07-7.43-6.98-17.85-15.3-40.27-25.57-63.9-27.25,1.13-4.49-2.46-4.73-2.83-8.67-.86-9.12,3.18-19.6,1.92-27.78-1.55-10.11-15.63-10.12-17.07,0-1.06,7.4,4.33,25.23,1.03,30.52-.48.77-1.67,1.51-1.86,2.17-.29.99.28,3.07-.46,3.58-.37.26-7.52.86-8.94,1.11-20.01,3.49-38.76,12.32-54.18,25.51-1.19,1.02-7.66,7.8-8.23,7.81-.24,0-1.88-1.55-2.6-1.77-2.33-.69-3.27.36-6.01-1.23-7.45-4.35-16.33-19.63-24.34-19.98-7.99-.35-11.49,8.56-6.44,14.57,4.89,5.82,21.85,11.71,24.23,18.07.36.98.35,2.14.71,2.92.39.82,2.67,2.13,2.54,2.97-.08.54-4.87,7.82-5.64,9.3-8.08,15.41-12.59,33.11-12.8,50.72l24.02-13.45c1.66-10.4,5.09-20.54,10.34-29.33.28-.48.99-2.24,1.6-2.01l14.44,12.9c1.19-.62,2.33-1.31,3.42-2.11.36-.27.75-.49,1.15-.69,4.62-3.29,9.34-6.42,14.16-9.42.93-.58,3.65-.46,4.83-.3l-24.53-17.35c-.36-.52,1.19-1.82,1.6-2.21,12.92-12.49,31.71-20.66,49.43-22.82.33,2.52-.28,5.1-.4,7.47-.48,9.72-.7,19.57-1.53,29.29,8.06-7.72,16.06-15.49,23.95-23.37.21-.21.43-.4.65-.59-.22-4.27-.42-8.54-.56-12.81,13.74,1.7,27.26,6.84,38.7,14.61,1.62,1.11,12.21,9.06,11.92,10.21l-16.6,11.76c2.13,9.9,1.86,13.09,2.92,25.58.27-.75.92-1.34,1.95-1.34,1.41,0,2.1,1.1,2.09,2.19l23.13-20.99c.67-.15,1.87,2.28,2.25,2.94,7.99,13.75,12.93,35.1,11.2,50.98-.06.56,0,1.08-.66,1.35l-25.41-7.31c-.14.32-.32.64-.57.95-5.74,7.27-11.82,14.25-17.89,21.24l39.68,6.57c-6.77,18.25-19.11,34.43-35.57,44.82l-11.21-27.09c.74,6.46,1.3,12.94,2.1,19.4,1.25,10.12,2.81,20.18,3.93,30.32,0,.04,0,.07,0,.1.79,4.1,1.54,8.2,2.22,12.33,4.53,4.71,6.9,21.43,11.02,27.12,5.89,8.16,18.06,2.43,15.25-7.65-1.92-6.93-14.55-20.52-14.25-26.42.05-1.03.87-1.94.8-3.25-.04-.98-1.33-3.01-1.06-3.45.24-.38,6.47-4.09,7.59-4.9,16.9-12.3,29.84-28.41,38.12-47.72.59-1.39,3.11-9.1,3.53-9.38.93-.64,2.33.36,3.4.23.88-.12,1.83-1.29,2.94-1.53,7.67-1.62,21.16,8,29.24,8.01,10.14,0,12.91-12.23,3.97-16.53Z"/>
  <g>
    <path class="cls-1" d="M247.52,204.86c5.69-6.23,11.81-12.12,16.85-18.88-.14-1.48-.25-2.93-.36-4.36-.44-5.5-.91-10.74-3.12-16.07-.55-1.29-2.83-6.36-3.52-7.38-.02-.03-.04-.05-.05-.06-.23-.32-.52-.57-.8-.83-.67.78-1.06,1.8-1.34,2.89-.38,1.43-.58,2.99-1,4.33-.56,1.73-1.46,3.1-3.56,3.38.2-1.39.67-2.88.8-4.3.04-.27.05-.54.05-.8-.02-7.44,0-15.71-1-23.78h0c-.28-2.32-.65-4.62-1.13-6.88-1.56-7.42-4.31-14.41-9.12-20.13-2.3-2.73-10.81-10.07-14.48-8.36-.62.29-4.08,3.35-4.91,4.07-.57.51-1.15,1.03-1.71,1.56-5.57,5.2-10.54,11.16-15.68,16.83-1.18,1.3-2.38,2.6-3.6,3.86-1.98,2.06-4.02,4.06-6.05,6.05-1.6,1.58-3.21,3.15-4.78,4.77-4.83-.51-9.71-1.3-14.58-1.75-2.9-.27-5.79-.42-8.68-.32-5.75,3.86-11.49,7.73-17.22,11.62-8.69,5.89-17.35,11.81-25.98,17.79-1.07.74-2.13,1.46-3.22,2.16-7.45,4.86-15.35,9.06-23.52,12.77-12.62,5.73-25.89,10.29-39.06,14.32-1.21.36-4.57.98-6.7,1.64-.15.05-.28.09-.41.14-.69.25-1.21.49-1.39.75-1.05,1.42,1.78,8.25,2.67,10.04,1.83,3.68,4.19,7.11,6.94,10.26.1.12.21.24.32.36,6.92,7.87,16.13,14.06,25.18,18.53-3.95,4.3-7.93,8.67-12.22,12.65-6.13,5.69-13.17,10.39-18.9,16.49-.51.54-2.81,2.33-3.29,2.9,1.19-.77,3.27-1.72,3.97-2.01,4.22-1.7,7.82-4.54,11.83-6.65,14.8-7.78,31.9-10.39,46.38-18.48.54-.3,1.6-.05,1.62-.42-4.89-3.55-11.37-3.89-17.14-5.72-9.59-3.03-19.46-8.19-27.9-14.76-4.17-3.23-7.98-6.8-11.25-10.62-.49-.57-.98-1.16-1.44-1.74-1.08-1.37-6.78-9.36-5.51-10.62.08,0,.15-.02.24-.03h0c.15-.02.28-.04.43-.05,7.18-.86,14.35-2.12,21.56-2.77,8.83-.77,17.16-1.31,25.17-.51,9.33.93,18.22,3.67,26.97,9.96,1.54,1.1,3.3,2.58,4.77,3.8.21.17.44.41.68.68,1.17,1.24,2.67,3.16,3.96,2.76.88-.27.5-2.01.16-3.45-.15-.66-.3-1.25-.32-1.62-.43-8.05,2.45-16.32,6.64-23.93,3.52-6.37,7.95-12.29,12.13-17.26,2.61-3.11,5.23-5.49,8.21-7.01,3.31-1.7,7.06-2.35,11.75-1.78.57,1.09-3.5,5.13-4.24,6.15-.42.57-.88,1.2-1.35,1.86-1.46,2.01-3.06,4.28-4.11,6.14-.2.36-.89,1.03-.29,1.35,1.68-2.03,3.41-4.02,5.17-6,6.7-7.54,13.77-14.78,19.73-22.92.41-.56.81-1.12,1.21-1.69,1.86-1.75,3.68-3.54,5.49-5.35,3.72-3.76,7.31-7.62,10.88-11.51,4.72-5.14,9.39-10.33,14.23-15.36.56.26-.06,1.04-.2,1.43-.59,1.69-3.39,6.95-3.29,8.15.03.4.29.91.67,1,.21.05,2.12-.57,4.02-1.21,1.59-.52,3.16-1.05,3.73-1.19,2.01-.47,4.1-.93,6.14-1.19,2.22-.28,10.41-1.02,11.98-.26,1.5.73,4.12,8.74,5.68,15.23.53,2.19.93,4.19,1.13,5.7.12.93.16,1.66.12,2.12-1.39-.87-3.16-3.66-4.65-5.41-.53-.62-1.02-1.1-1.45-1.33-.53-.28-.69-.3-1.02.23l-2.8,4.84-19.67,34-13.45,23.24-.18.32.37-.24,14.74-9.32,15.5-9.8c1.27-1.77-.27-8.05-.03-10.43,1.44,1.21,2.53,3.23,3.86,4.5.88.85,2.06,1.41,2.86,2.36l4.33-2.47,7.32-4.17.98-2.81,1.66-4.75c3.05,6.53,4.5,13.62,4.69,20.81.04,1.12.03,2.24,0,3.37-16.14,11.04-31.32,23.37-46.87,35.21-1.48,1.57-2.19,2.96-2.71,5.04,0,.03,0,.05-.02.07-3.55,14.1-2.32,22.77-3.27,37.48l-1.33,15.8c0,1.19-1.64,12.44-1.64,12.44,0,0,4.18-5.75,4.28-5.91,4.2-7.29,3.48-5.71,6.68-12.16.88-1.79,2.62-5.63,3.48-7.44,2.42-5.09,3.16-9.86,5.11-15.17.15-.42.3-.85.45-1.27,1.76-5.06,3.11-10.27,5.05-15.26l.62,16.52,1.62,12.03c.11-6.74.36-13.45.43-20.21.05-5.87-1.2-14.49,1.32-19.85l1.92-2.77c1.01,16.83,2.87,33.64,5.37,50.32.38,2.56,2.35,9.69,2.26,11.43-.1,1.64-1.27,5-2.27,7.96-.51,1.53-.98,2.94-1.25,3.97-3.24,12.65-6.04,26.11-7.7,39.2-.18,1.35-.34,2.69-.48,4.02-.68,6.31-.67,12.7-1.45,19.01-.05.42-.11.84-.16,1.26,0,.05,0,.09-.02.14l.04-.18,13.1-68.07c.63-2.54,1.29-5.09,1.97-7.62l-8.57-62.8c.34-.53.67-1.05,1.03-1.57,2.65-3.94,5.72-7.55,8.91-11.05Z"/>
    <path class="cls-2" d="M112.34,230.71c.1.73-.88.36-1.32.3-1.56-.24-2.97-.72-4.35-1.28-1.75-.7-3.44-1.54-5.23-2.2-7.57-2.77-15.32-5.25-22.83-8.25-4.74-1.88-9.38-3.97-13.85-6.46-2.04-1.14-4.42-2.37-6.12-3.99-.19-.18-.37-.37-.55-.57.27.1.55.2.82.29,5.51,1.93,10.99,2.97,16.92,2.55,1.8-.12,3.21-1.24,5.12-.63.46.15,4.11,3.88,5.93,5.62.33.32.6.57.78.72,5.53,4.56,11.69,7.81,18.04,10.82,2.19,1.04,4.4,2.05,6.63,3.07Z"/>
    <path class="cls-2" d="M171.07,278.84l-4.08-9.58c-1.81-5.67-3.9-11.43-5.42-17.29-.83-3.2-1.49-6.43-1.86-9.69-1.4-12.67,1.42-25.48,6.88-36.87-2.38,1.84-4.34,4.39-5.88,6.97-.91,1.52-3.23,7.36-3.9,7.93-1.19,1.02-1.58-3.33-1.63-4.09-.25-3.19-.07-6.33.43-9.41.89-5.62,2.86-11.06,5.33-16.23.97-2.02,2.05-4.34,3.61-5.97-2.42,7.28-6.06,14.37-7.55,21.97-.31,1.55-.53,3.13-.62,4.73-.1,1.6-.46,5.01.82,5.93.49-1.54,1.29-3.23,2.12-4.61.57-.94,3.27-5.03,5.65-7.38,1.32-1.31,2.54-2.08,3.25-1.46-.15.34-.3.67-.44,1.01-5.79,13.26-8.35,26.55-5.96,41.07.2,1.25.45,2.49.73,3.71,2.21,9.94,6.4,19.32,8.52,29.26Z"/>
  </g>
  <path class="cls-1" d="M244.38,280.62c-.1,1.64-1.27,5-2.27,7.96-.51,1.53-.98,2.94-1.25,3.97-3.24,12.65-6.04,26.11-7.7,39.2,5.64-50.34-10-76.45-10-76.45,2.42-5.09.24-.3,2.18-5.6.15-.42.3-.85.45-1.27,1.76-5.06,3.11-10.27,5.05-15.26l.62,16.52,1.62,12.03c.11-6.74.36-13.45.43-20.21.05-5.87-1.2-14.49,1.32-19.85l1.92-2.77c1.01,16.83,2.87,33.64,5.37,50.32.38,2.56,2.35,9.69,2.26,11.43Z"/>
  <path class="cls-1" d="M231.08,355.97l13.1-68.07c.63-2.54,1.29-5.09,1.97-7.62,0,0,4.1,25.69-15.07,75.69Z"/>
  <path class="cls-3" d="M233.16,331.73c-.23,7.03-.84,14.69-1.93,23.03-.05.42-.11.84-.16,1.26,0-.02,0-.03.02-.05"/>
</svg>